<svg width="36" height="36" viewBox="0 0 36 36" fill="none" xmlns="http://www.w3.org/2000/svg">
<g id="Group 54">
<path id="Vector" d="M18 36C27.9411 36 36 27.9411 36 18C36 8.05887 27.9411 0 18 0C8.05887 0 0 8.05887 0 18C0 27.9411 8.05887 36 18 36Z" fill="#C4C4C4"/>
<path id="Vector_2" d="M24.4004 9.75H11.5996C10.5996 9.75 9.7998 10.571 9.7998 11.583V24.417C9.7998 25.429 10.5996 26.25 11.5996 26.25H24.4004C25.4004 26.25 26.2002 25.429 26.2002 24.417V11.583C26.2002 10.571 25.4004 9.75 24.4004 9.75Z" stroke="white" stroke-width="1.5" stroke-linecap="round" stroke-linejoin="round"/>
<path id="Vector_3" d="M14.7998 16.167C15.5998 16.167 16.2002 15.551 16.2002 14.792C16.2002 14.032 15.5998 13.417 14.7998 13.417C13.9998 13.417 13.4004 14.032 13.4004 14.792C13.4004 15.551 13.9998 16.167 14.7998 16.167Z" stroke="white" stroke-width="1.5" stroke-linecap="round" stroke-linejoin="round"/>
<path id="Vector_4" d="M26.2998 20.75L21.7002 16.167L11.5996 26.25" stroke="white" stroke-width="1.5" stroke-linecap="round" stroke-linejoin="round"/>
</g>
</svg>
