<svg width="19" height="17" viewBox="0 0 19 17" fill="none" xmlns="http://www.w3.org/2000/svg">
<path id="Vector" d="M16.1001 2.34601C15.7001 1.93901 15.2301 1.61502 14.7001 1.39502C14.1801 1.17402 13.62 1.06 13.05 1.06C12.49 1.06 11.93 1.17402 11.41 1.39502C10.88 1.61502 10.41 1.93901 10.01 2.34601L9.18005 3.19202L8.3501 2.34601C7.5401 1.52301 6.45005 1.061 5.30005 1.061C4.16005 1.061 3.07001 1.52301 2.26001 2.34601C1.45001 3.16901 1 4.28601 1 5.45001C1 6.61401 1.45001 7.73001 2.26001 8.55301L3.09009 9.39902L9.18005 15.606L15.27 9.39902L16.1001 8.55301C16.5001 8.14601 16.82 7.662 17.03 7.129C17.25 6.597 17.3601 6.02601 17.3601 5.45001C17.3601 4.87301 17.25 4.30302 17.03 3.77002C16.82 3.23802 16.5001 2.75401 16.1001 2.34601Z" stroke="#362E31" stroke-width="1.5" stroke-linecap="round" stroke-linejoin="round"/>
</svg>
