<svg width="4" height="18" viewBox="0 0 4 18" fill="none" xmlns="http://www.w3.org/2000/svg">
<path d="M2 10C2.55 10 3 9.552 3 9C3 8.448 2.55 8 2 8C1.45 8 1 8.448 1 9C1 9.552 1.45 10 2 10Z" fill="#C4C4C4" stroke="#C4C4C4" stroke-linecap="round" stroke-linejoin="round"/>
<path d="M2 3C2.55 3 3 2.552 3 2C3 1.448 2.55 1 2 1C1.45 1 1 1.448 1 2C1 2.552 1.45 3 2 3Z" fill="#C4C4C4" stroke="#C4C4C4" stroke-linecap="round" stroke-linejoin="round"/>
<path d="M2 17C2.55 17 3 16.552 3 16C3 15.448 2.55 15 2 15C1.45 15 1 15.448 1 16C1 16.552 1.45 17 2 17Z" fill="#C4C4C4" stroke="#C4C4C4" stroke-linecap="round" stroke-linejoin="round"/>
</svg>
