<svg width="18" height="17" viewBox="0 0 18 17" fill="none" xmlns="http://www.w3.org/2000/svg">
<path id="Vector" d="M16.6801 7.91601C16.6801 9.01601 16.4301 10.101 15.9301 11.083C15.3401 12.259 14.4401 13.249 13.3201 13.941C12.2001 14.633 10.9101 14.999 9.6001 15C8.5001 15.003 7.41005 14.746 6.43005 14.25L1.68005 15.833L3.26001 11.083C2.77001 10.101 2.51001 9.01601 2.51001 7.91601C2.51001 6.60101 2.88007 5.31199 3.57007 4.19299C4.26007 3.07499 5.25005 2.171 6.43005 1.583C7.41005 1.087 8.5001 0.830003 9.6001 0.833003H10.01C11.75 0.929003 13.39 1.66199 14.62 2.89199C15.85 4.12199 16.5801 5.763 16.6801 7.5V7.91601Z" stroke="#362E31" stroke-width="1.5" stroke-linecap="round" stroke-linejoin="round"/>
</svg>
