<svg width="20" height="20" viewBox="0 0 20 20" fill="none" xmlns="http://www.w3.org/2000/svg">
<path id="Vector" d="M19 9.50002C19 10.82 18.7 12.122 18.1 13.3C17.39 14.712 16.31 15.899 14.97 16.729C13.63 17.559 12.08 17.999 10.5 18C9.18 18.003 7.87995 17.695 6.69995 17.1L1 19L2.90002 13.3C2.30002 12.122 2 10.82 2 9.50002C2 7.92202 2.44002 6.37503 3.27002 5.03303C4.10002 3.69003 5.28995 2.60602 6.69995 1.90002C7.87995 1.30502 9.18 0.997022 10.5 1.00002H11C13.08 1.11502 15.05 1.99501 16.53 3.47101C18.01 4.94701 18.89 6.91602 19 9.00002V9.50002Z" fill="#C55854" stroke="#C55854" stroke-width="2" stroke-linecap="round" stroke-linejoin="round"/>
</svg>
