<svg width="18" height="21" viewBox="0 0 18 21" fill="none" xmlns="http://www.w3.org/2000/svg">
<g id="Group 7">
<path id="Vector" d="M17 20V17C17 15.939 16.58 14.922 15.83 14.172C15.08 13.421 14.06 13 13 13H5C3.94 13 2.92004 13.421 2.17004 14.172C1.42004 14.922 1 15.939 1 17V20" stroke="#D2CBCE" stroke-width="2" stroke-linecap="round" stroke-linejoin="round"/>
<path id="Vector_2" d="M1 20H17" stroke="#D2CBCE" stroke-width="2" stroke-linecap="round"/>
<path id="Vector_3" d="M9 9C11.21 9 13 7.209 13 5C13 2.791 11.21 1 9 1C6.79 1 5 2.791 5 5C5 7.209 6.79 9 9 9Z" stroke="#D2CBCE" stroke-width="2" stroke-linecap="round" stroke-linejoin="round"/>
</g>
</svg>
