<svg width="20" height="20" viewBox="0 0 20 20" fill="none" xmlns="http://www.w3.org/2000/svg">
<g id="Group 5">
<path id="Vector" d="M19 9.50001C19 10.82 18.7 12.122 18.1 13.3C17.39 14.712 16.31 15.899 14.97 16.729C13.63 17.559 12.08 17.999 10.5 18C9.18 18.003 7.87995 17.695 6.69995 17.1L1 19L2.90002 13.3C2.30002 12.122 2 10.82 2 9.50001C2 7.92201 2.44002 6.37501 3.27002 5.03301C4.10002 3.69001 5.28995 2.606 6.69995 1.9C7.87995 1.305 9.18 0.997006 10.5 1.00001H11C13.08 1.11501 15.05 1.995 16.53 3.471C18.01 4.947 18.89 6.91601 19 9.00001V9.50001Z" stroke="#D2CBCE" stroke-width="2" stroke-linecap="round" stroke-linejoin="round"/>
</g>
</svg>
