<svg width="18" height="18" viewBox="0 0 18 18" fill="none" xmlns="http://www.w3.org/2000/svg">
<g id="Group 14">
<path id="Vector" d="M18 8.49999C18 9.81999 17.7 11.122 17.1 12.3C16.39 13.712 15.31 14.899 13.97 15.729C12.63 16.559 11.08 16.999 9.5 17C8.18 17.003 6.87995 16.695 5.69995 16.1L0 18L1.90002 12.3C1.30002 11.122 1 9.81999 1 8.49999C1 6.92199 1.44002 5.37498 2.27002 4.03298C3.10002 2.68998 4.28995 1.60599 5.69995 0.899985C6.87995 0.304985 8.18 -0.00300881 9.5 -8.81028e-06H10C12.08 0.114991 14.05 0.995 15.53 2.471C17.01 3.947 17.89 5.91599 18 7.99999V8.49999Z" fill="#F2C94C"/>
</g>
</svg>
