<svg width="18" height="20" viewBox="0 0 18 20" fill="none" xmlns="http://www.w3.org/2000/svg">
<g id="Group 15">
<path id="Vector" d="M18 10.207C18 9.602 17.95 9.02701 17.85 8.46701H9.19995V11.923H14.15C13.93 13.057 13.2801 14.015 12.3101 14.667V16.966H15.27C17 15.364 18 13.004 18 10.207Z" fill="#4285F4"/>
<path id="Vector_2" d="M9.19995 19.195C11.68 19.195 13.75 18.368 15.27 16.966L12.3101 14.667C11.4901 15.218 10.44 15.556 9.19995 15.556C6.79995 15.556 4.77004 13.939 4.04004 11.755H0.98999V14.123C2.49999 17.126 5.59995 19.195 9.19995 19.195Z" fill="#34A853"/>
<path id="Vector_3" d="M4.04004 11.755C3.85004 11.203 3.75 10.613 3.75 10C3.75 9.387 3.85004 8.797 4.04004 8.245V5.87701H0.98999C0.35999 7.11901 0 8.513 0 10C0 11.487 0.35999 12.881 0.98999 14.123L4.04004 11.755Z" fill="#FBBC05"/>
<path id="Vector_4" d="M9.19995 4.444C10.55 4.444 11.76 4.91201 12.72 5.82401L15.34 3.203C13.75 1.716 11.68 0.804993 9.19995 0.804993C5.59995 0.804993 2.49999 2.87401 0.98999 5.87701L4.04004 8.245C4.77004 6.061 6.79995 4.444 9.19995 4.444Z" fill="#EA4335"/>
</g>
</svg>
