<svg width="50" height="50" viewBox="0 0 50 50" fill="none" xmlns="http://www.w3.org/2000/svg">
<g id="Group 28">
<g id="Group 1">
<path id="Vector" d="M25 50C38.8071 50 50 38.8071 50 25C50 11.1929 38.8071 0 25 0C11.1929 0 0 11.1929 0 25C0 38.8071 11.1929 50 25 50Z" fill="#362E31"/>
<path id="Vector_2" d="M33.17 14.5H16.83C15.54 14.5 14.5 15.5447 14.5 16.8333V33.1667C14.5 34.4553 15.54 35.5 16.83 35.5H33.17C34.46 35.5 35.5 34.4553 35.5 33.1667V16.8333C35.5 15.5447 34.46 14.5 33.17 14.5Z" stroke="white" stroke-width="1.5" stroke-linecap="round" stroke-linejoin="round"/>
<path id="Vector_3" d="M20.92 22.6667C21.88 22.6667 22.67 21.8832 22.67 20.9167C22.67 19.9502 21.88 19.1667 20.92 19.1667C19.95 19.1667 19.17 19.9502 19.17 20.9167C19.17 21.8832 19.95 22.6667 20.92 22.6667Z" stroke="white" stroke-width="1.5" stroke-linecap="round" stroke-linejoin="round"/>
<path id="Vector_4" d="M35.5 28.5L29.67 22.6667L16.83 35.5" stroke="white" stroke-width="1.5" stroke-linecap="round" stroke-linejoin="round"/>
</g>
</g>
</svg>
